# xmcd
#
# Track frame offsets:
#	150
#	11657
#	26432
#	39444
#	55122
#	66517
#	80011
#	92115
#	108136
#	121359
#	139950
#	153396
#
# Disc length: 2216 seconds
# Revision: 0
# Processed by: cddbd v1.5.2PL0 Copyright (c) Steve Scherf et al.
# Submitted via: dBpowerAMP V12.0
#
DISCID=9b08a60c
DTITLE=Crowe, Lawson and Williams - Standing Tall And Tough
DYEAR=2014
DGENRE=Country
TTITLE0=My Walking Shoes
TTITLE1=Blue Memories
TTITLE2=Do You Live What You Preach
TTITLE3=The Hills Of Roane County
TTITLE4=Don't Laugh
TTITLE5=Little Angel In Heaven
TTITLE6=Standing Tall And Tough
TTITLE7=Insured Beyond The Grave
TTITLE8=Fraulien
TTITLE9=Pretending I Don't Care
TTITLE10=Once A Day
TTITLE11=Those Gone And Left Me Blues
EXTD=
EXTT0=
EXTT1=
EXTT2=
EXTT3=
EXTT4=
EXTT5=
EXTT6=
EXTT7=
EXTT8=
EXTT9=
EXTT10=
EXTT11=
PLAYORDER=
